<svg width="720" height="720" xmlns="http://www.w3.org/2000/svg" xmlns:xlink="http://www.w3.org/1999/xlink" xml:space="preserve" overflow="hidden"><g transform="translate(-280 0)"><path d="M319.57 609.188C285.68 604.617 258.82 593.508 230.906 572.625 192.164 543.586 167.344 498.727 161.719 447.891 159.258 425.883 162.422 397.477 169.805 375.117 173.109 364.992 181.406 346.43 186.75 337.43 195.328 322.664 214.242 301.289 229.219 289.406 250.734 272.32 274.148 261.492 303.258 255.305 318.797 251.93 342 250.734 356.836 252.492 378.352 254.953 402.891 262.195 421.383 271.477L427.008 274.359 433.055 272.32C437.836 270.773 440.297 270.352 444.727 270.422 447.82 270.492 451.195 270.844 452.25 271.266 454.078 272.039 454.43 271.758 460.688 265.078 464.273 261.211 467.578 258.047 467.93 258.047 468.352 258.047 479.109 268.453 491.836 281.25L515.039 304.453 510.82 308.812C508.5 311.273 505.547 314.367 504.352 315.703L502.102 318.164 503.086 322.383C504.984 330.258 504.141 338.766 500.695 346.781L499.43 349.805 501.328 353.672C508.43 367.875 515.672 395.367 517.43 414.844 518.977 431.156 518.203 445.641 515.039 463.078 505.336 515.461 474.328 559.969 429.117 586.406 408.023 598.781 385.312 606.305 360.211 609.258 349.312 610.523 329.273 610.523 319.57 609.188ZM332.578 564.117C332.648 548.93 333.141 545.695 335.883 542.672 339.258 538.875 345.445 538.031 349.734 540.633 353.32 542.883 355.008 545.625 355.922 550.547L356.625 554.766 359.227 554.344C381.094 550.617 404.578 538.453 423.492 521.016 433.266 512.016 444.727 496.195 450.773 483.328 456.75 470.742 461.883 453.234 461.953 445.078 462.023 441.352 463.43 437.133 465.258 435.094 468.07 431.93 471.305 431.016 479.18 431.016L486.562 431.016 486.562 426.867C486.562 409.148 479.461 382.43 469.547 362.461 460.828 345.094 447.258 328.359 431.016 314.93 421.523 307.055 405 297.703 392.344 292.992 380.25 288.492 358.172 283.57 356.695 285.047 356.414 285.328 356.062 299.109 355.922 315.773L355.641 345.938 366.961 345.938 378.281 345.938 378.281 326.602 378.281 307.266 380.25 307.688C383.203 308.461 390.586 311.273 396.633 314.086 402.117 316.547 402.188 316.617 402.188 319.219 402.188 321.609 402.398 321.891 404.367 322.312 405.562 322.523 407.812 322.734 409.289 322.734 411.609 322.734 412.875 323.508 418.5 328.148 426.938 335.109 436.641 344.531 436.641 345.727 436.641 346.43 433.266 346.641 419.414 346.641L402.258 346.641 402.398 352.828C402.539 358.383 402.328 359.227 400.57 362.25 398.25 366.188 395.719 368.156 391.57 369.07 389.883 369.492 381.375 369.773 372.727 369.773 364.078 369.773 356.906 369.914 356.766 369.984 356.695 370.125 356.484 377.086 356.344 385.523L356.133 400.781 374.766 400.781C395.648 400.781 395.789 400.781 399.797 406.055 401.414 408.234 401.766 409.43 401.836 412.734 401.836 416.25 401.555 417.164 399.656 419.555 396 424.055 393.82 424.477 374.133 424.617 364.641 424.688 356.836 424.828 356.766 424.898 356.625 424.969 356.414 430.945 356.203 438.188 355.852 452.812 355.148 455.414 350.719 458.508 347.344 460.969 341.438 461.18 338.273 459 333.422 455.766 332.93 454.148 332.719 438.609L332.438 424.688 316.547 424.688C307.758 424.688 299.18 424.336 297.492 423.914 293.273 423 290.461 420.82 288.914 417.375 287.719 414.703 287.578 412.102 287.578 380.602L287.578 346.641 271.125 346.641C260.719 346.641 253.898 346.359 252.352 345.867 249.609 344.953 246.797 342.633 246.797 341.297 246.797 340.242 256.57 331.523 263.672 326.18L268.242 322.734 276.328 322.594C280.758 322.523 285.117 322.453 286.031 322.453 287.508 322.453 287.578 322.172 287.578 317.391L287.578 312.328 293.766 309.727C301.008 306.703 309.867 304.031 310.5 304.594 310.711 304.875 310.992 326.531 311.062 352.758L311.133 400.43 321.891 400.641 332.578 400.852 332.578 342.352 332.578 283.852 325.758 284.344C305.438 285.75 281.18 293.766 263.039 305.086 234.914 322.523 212.836 349.383 201.516 379.969 198.914 386.93 194.062 404.578 194.062 407.109 194.062 408.445 194.625 408.516 202.359 408.516L210.656 408.516 213.398 399.586C216.422 389.461 221.203 378.211 226.406 368.789 230.625 361.266 237.727 350.719 238.922 350.297 239.555 350.086 239.766 353.672 239.906 364.008L240.117 377.93 251.367 378.281C258.117 378.492 263.18 378.984 264.094 379.477 266.836 381.023 269.859 385.172 270.352 387.984 271.125 392.625 268.102 398.109 263.32 400.641 261.773 401.484 258.469 401.836 250.523 402.047L239.766 402.328 239.766 408.375C239.766 416.18 238.219 419.695 233.578 422.438L230.273 424.336 211.5 424.547 192.656 424.758 192.656 433.477C192.656 465.609 204.82 498.234 226.547 524.18 248.062 549.984 275.484 567.422 306.562 575.086 313.664 576.773 324.562 578.531 329.273 578.602L332.578 578.672 332.578 564.117ZM485.719 317.531C488.461 316.125 489.727 313.312 489.445 309.234 489.445 308.602 484.945 303.469 479.461 297.844 468.633 286.664 467.016 285.68 462.656 287.93 460.055 289.266 458.227 293.062 458.859 295.734 459.352 297.773 476.086 315.984 478.828 317.531 481.148 318.727 483.328 318.727 485.719 317.531Z" fill="#BB91F6" transform="matrix(1 0 0 -1 280 720)"/><path d="M304.102 555.891C294.258 551.461 296.297 537.469 307.055 535.43 310.008 534.867 315.281 537.258 317.32 540.07 320.484 544.43 319.289 551.742 314.789 554.906 312.258 556.734 306.984 557.227 304.102 555.891Z" fill="#BB91F6" transform="matrix(1 0 0 -1 280 720)"/><path d="M275.695 526.219C273.727 525.375 242.016 494.93 236.602 488.672 232.875 484.453 232.875 479.039 236.531 474.328 239.625 470.25 245.812 468.562 250.734 470.391 253.617 471.516 289.547 507.445 291.164 510.82 292.992 514.828 292.852 517.43 290.391 521.297 287.016 526.57 281.109 528.609 275.695 526.219Z" fill="#BB91F6" transform="matrix(1 0 0 -1 280 720)"/><path d="M373.148 522.352C371.531 521.367 369.703 517.641 367.523 510.82 366.539 507.727 364.43 501.117 362.812 496.055 358.031 481.148 357.961 479.039 362.109 473.344 364.43 470.109 369.492 467.156 373.922 466.453 381.586 465.258 390.586 472.008 392.625 480.516 393.258 483.258 381.516 519.188 379.195 521.578 377.508 523.195 375.188 523.547 373.148 522.352Z" fill="#BB91F6" transform="matrix(1 0 0 -1 280 720)"/><path d="M410.695 486.984C409.078 485.297 407.812 481.711 401.414 460.688 397.688 448.383 397.406 445.781 399.094 441.703 401.344 436.289 408.305 431.719 414.422 431.719 423 431.719 431.016 439.172 431.016 447.188 431.016 451.617 419.414 486.984 417.656 487.969 415.336 489.164 412.383 488.812 410.695 486.984Z" fill="#BB91F6" transform="matrix(1 0 0 -1 280 720)"/><path d="M282.023 468.562C280.195 467.227 277.875 462.445 273.938 451.828 270.844 443.672 270.984 440.789 274.43 436.922 280.336 430.172 289.195 430.172 295.102 436.852 298.055 440.227 298.688 443.672 297.141 448.242 294.609 455.484 289.406 467.156 288.141 468.422 286.594 469.969 284.203 470.039 282.023 468.562Z" fill="#BB91F6" transform="matrix(1 0 0 -1 280 720)"/><path d="M450.281 423.984C446.906 423.211 443.461 420.82 441.914 418.219 440.789 416.32 440.508 414.633 440.508 409.078L440.508 402.188 434.18 402.188C415.266 402.047 410.344 400.852 407.742 395.719 404.93 390.234 406.477 383.836 411.539 380.109 413.367 378.773 414.633 378.633 426.867 378.422L440.156 378.141 440.227 366.117C440.227 359.438 440.508 353.391 440.789 352.688 441.211 351.492 441.914 352.125 445.289 356.906 453.094 367.875 462.094 388.125 465.469 402.539 466.734 407.812 468.984 421.312 468.984 423.633 468.984 424.547 467.648 424.688 460.758 424.617 456.188 424.547 451.477 424.336 450.281 423.984Z" fill="#BB91F6" transform="matrix(1 0 0 -1 280 720)"/><path d="M184.57 581.484C171.703 580.43 160.805 575.086 151.805 565.523 146.32 559.688 143.508 555.047 140.906 547.383 139.219 542.25 139.008 540.562 138.656 528.891 138.305 514.195 138.867 511.453 143.156 507.727 146.039 505.195 148.219 504.492 151.734 505.125 155.531 505.688 157.57 507.586 160.312 513 162.633 517.641 162.773 518.203 163.125 527.695 163.477 536.625 163.688 537.891 165.445 541.547 168.961 548.719 175.781 554.203 183.164 555.75 186.398 556.453 187.242 557.086 192.375 562.852 195.539 566.367 201.305 571.992 205.242 575.438 209.109 578.812 212.344 581.695 212.344 581.836 212.344 582.258 190.758 581.977 184.57 581.484Z" fill="#BB91F6" transform="matrix(1 0 0 -1 280 720)"/><path d="M468.281 581.836C468.281 581.695 473.977 575.93 480.938 568.969L493.594 556.312 500.836 556.031C506.953 555.82 508.57 555.469 512.016 553.711 517.008 551.25 521.93 546.539 524.391 541.828L526.289 538.242 526.5 519.609 526.711 500.977 524.531 504.141C523.406 505.898 522.422 507.094 522.422 506.812 522.422 506.602 523.828 502.031 525.586 496.617 528.258 488.32 532.688 470.602 534.797 459.844 535.43 456.891 535.57 456.68 537.539 456.961 542.109 457.453 546.891 461.109 549.562 466.172 550.828 468.422 550.898 471.023 551.109 501.961 551.32 536.695 551.039 541.477 548.367 549.633 543.656 564.047 528.398 577.266 512.578 580.781 508.992 581.555 468.281 582.539 468.281 581.836Z" fill="#BB91F6" transform="matrix(1 0 0 -1 280 720)"/><path d="M148.359 486C145.195 484.031 141.961 480.656 140.414 477.773 138.938 475.031 138.867 474.117 138.656 447.188 138.516 431.93 138.656 418.711 138.867 417.867 139.078 416.883 139.781 416.25 140.555 416.25 141.75 416.25 141.82 417.023 141.609 428.062 141.328 444.305 144 464.203 148.781 480.656 149.766 484.031 150.469 486.773 150.328 486.914 150.188 487.055 149.344 486.633 148.359 486Z" fill="#BB91F6" transform="matrix(1 0 0 -1 280 720)"/><path d="M536.484 430.523C536.414 422.438 535.57 409.711 534.656 403.312 532.406 387.281 526.43 364.641 521.016 351.492 519.82 348.75 518.906 346.148 518.906 345.867 518.906 345.516 520.734 345.234 522.984 345.234L526.992 345.234 526.711 332.93C526.641 326.109 526.641 320.203 526.852 319.641 527.133 318.867 528.047 318.938 532.055 319.711 536.625 320.695 547.383 320.555 550.195 319.5 551.109 319.148 551.25 325.195 551.25 369.281 551.25 423.844 551.25 423.492 547.383 428.695 545.344 431.227 540.844 433.758 538.102 433.828 536.625 433.828 536.484 433.477 536.484 430.523Z" fill="#BB91F6" transform="matrix(1 0 0 -1 280 720)"/><path d="M141.469 401.344C140.695 400.43 139.711 398.812 139.289 397.758 138.727 396.422 138.516 375.328 138.516 331.594L138.516 267.469 140.133 264.375C141.68 261.141 145.055 258.398 148.289 257.555 150.398 256.992 155.602 258.328 157.852 260.016 161.086 262.406 162.422 265.922 162.633 272.391L162.773 278.438 180.211 278.438 197.578 278.438 197.578 258.047 197.578 237.656 173.531 237.656C148.289 237.586 145.898 237.375 142.594 234.352 139.148 231.258 138.516 228.586 138.516 217.055 138.516 204.961 139.289 200.883 143.086 192.797 146.109 186.398 150.961 180.07 155.672 176.344 160.312 172.617 169.594 168.188 173.883 167.625L177.188 167.133 177.188 179.859 177.188 192.516 172.758 196.031C167.625 200.039 163.898 205.453 163.336 209.531L162.914 212.344 180.281 212.344 197.578 212.344 197.648 195.328C197.719 175.148 198.07 173.531 203.766 169.523L206.086 167.906 249.539 167.906C297.422 167.977 295.312 167.766 299.109 172.266 304.594 178.805 302.273 188.016 294.188 191.742 290.391 193.5 290.109 193.5 273.656 193.289 264.516 193.219 248.977 193.148 239.203 193.219L221.414 193.359 221.625 202.711 221.836 211.992 228.867 212.344C236.18 212.695 237.656 213.188 240.258 216 244.477 220.5 244.828 226.828 241.172 231.961 238.078 236.18 236.039 236.953 228.164 236.953L221.484 236.953 221.484 254.18 221.484 271.336 213.539 278.016C209.18 281.602 201.656 288.773 196.805 293.836L188.016 303.047 175.57 303.047 163.125 303.047 162.984 309.234C162.633 332.648 162.633 337.219 163.195 337.852 163.547 338.344 163.055 340.172 162 342.422 154.477 358.523 147.727 380.109 144.703 397.828 144.281 400.57 143.648 402.891 143.438 402.891 143.156 402.891 142.312 402.188 141.469 401.344Z" fill="#BB91F6" transform="matrix(1 0 0 -1 280 720)"/><path d="M535.711 300.727C532.898 299.672 528.469 296.438 527.062 294.469 526.57 293.766 515.109 281.953 501.609 268.172 488.109 254.461 476.367 242.086 475.523 240.68 473.344 237.023 472.922 232.734 474.258 228.094 475.383 224.227 476.578 222.961 519.188 179.719 577.125 121.008 578.602 119.602 585.844 116.086 594.211 111.938 599.273 110.812 609.258 110.812 619.102 110.812 623.953 111.938 632.461 116.016 646.242 122.695 657.211 135.984 661.43 151.172 662.414 154.688 662.695 158.203 662.625 166.289 662.625 175.922 662.484 177.328 660.656 182.461 659.602 185.555 657.914 189.492 656.93 191.25 654.258 195.82 551.672 298.266 548.227 299.812 544.57 301.5 538.805 301.852 535.711 300.727ZM540.141 260.227C541.055 259.875 555.328 246.234 571.852 229.922 604.688 197.438 605.039 196.945 603.352 191.25 602.156 187.172 599.414 184.922 595.688 184.922 594 184.922 591.82 185.344 590.766 185.906 588.938 186.891 533.742 242.016 529.945 246.656 527.695 249.469 527.555 251.648 529.453 255.516 531.633 260.086 535.781 261.914 540.141 260.227Z" fill="#BB91F6" transform="matrix(1 0 0 -1 280 720)"/><path d="M420.609 251.438C411.539 248.484 406.125 240.68 406.266 230.766 406.406 223.242 411.188 216.07 418.219 212.836 423.141 210.586 430.875 210.727 435.656 213.188 450.422 220.852 450.984 242.086 436.641 249.891 432.141 252.352 425.391 252.984 420.609 251.438Z" fill="#BB91F6" transform="matrix(1 0 0 -1 280 720)"/><path d="M280.406 238.57C273.586 231.539 273.305 222.258 279.703 215.648 289.336 205.805 305.93 213.68 305.93 228.164 305.93 234.562 305.086 235.898 300.375 236.883 298.195 237.375 293.766 238.5 290.672 239.484 287.508 240.398 284.484 241.172 283.922 241.172 283.359 241.172 281.812 239.977 280.406 238.57Z" fill="#BB91F6" transform="matrix(1 0 0 -1 280 720)"/><path d="M378.281 233.367C368.719 229.57 369.141 216.422 378.914 213.117 383.766 211.5 389.883 215.016 391.641 220.5 394.242 228.375 385.875 236.391 378.281 233.367Z" fill="#BB91F6" transform="matrix(1 0 0 -1 280 720)"/><path d="M332.719 205.031 332.93 176.625 335.039 173.531C336.375 171.562 338.273 170.016 340.312 169.102 343.477 167.695 344.25 167.695 423.984 168.047L504.492 168.398 483.75 189.562 463.008 210.797 462.797 202.148 462.586 193.5 458.227 193.219C455.836 193.078 431.859 193.008 405 193.008L356.133 193.008 355.922 213.258 355.781 233.438 344.109 233.438 332.508 233.438 332.719 205.031Z" fill="#BB91F6" transform="matrix(1 0 0 -1 280 720)"/></g></svg>